{"title":"Toolroom Knights CD1(2009)-Mixed by Joachim Garraud","uid":5305278,"size":570135009,"categoryP":"audio","categoryS":"flac","magnet":"?xt=urn:btih:73d5ac1044f76a42df1057dca0866228e3920c17&amp;dn=Toolroom+Knights+CD1%282009%29-Mixed+by+Joachim+Garraud&amp;tr=udp%3A%2F%2Ftracker.openbittorrent.com%3A80&amp;tr=udp%3A%2F%2Fopen.demonii.com%3A1337&amp;tr=udp%3A%2F%2Ftracker.coppersurfer.tk%3A6969&amp;tr=udp%3A%2F%2Fexodus.desync.com%3A6969","seeders":1,"leechers":1,"uploader":"CTACyan","files":-1,"time":1264366109,"description":"Exact Audio Copy V0.99 prebeta 5 from 4. May 2009\n\nEAC extraction logfile from 28. August 2009, 15:12\n\nJoachim Garraud / Toolroom Knights CD1\n\nUsed drive  : Optiarc DVD RW AD-7201S   Adapter: 3  ID: 0\n\nRead mode               : Secure\nUtilize accurate stream : Yes\nDefeat audio cache      : Yes\nMake use of C2 pointers : No\n\nRead offset correction                      : 48\nOverread into Lead-In and Lead-Out          : No\nFill up missing offset samples with silence : Yes\nDelete leading and trailing silent blocks   : No\nNull samples used in CRC calculations       : Yes\nUsed interface                              : Installed external ASPI interface\n\nUsed output format              : User Defined Encoder\nSelected bitrate                : 128 kBit/s\nQuality                         : High\nAdd ID3 tag                     : No\nCommand line compressor         : C:Program FilesExact Audio CopyFlacflac.exe\nAdditional command line options : -8 -V -T &quot;ARTIST=%a&quot; -T &quot;TITLE=%t&quot; -T &quot;ALBUM=%g&quot; -T &quot;DATE=%y&quot; -T &quot;TRACKNUMBER=%n&quot; -T &quot;GENRE=%m&quot; -T &quot;COMMENT=EAC FLAC -8&quot; %s\n\n\nTOC of the extracted CD\n\n     Track |   Start  |  Length  | Start sector | End sector \n    ---------------------------------------------------------\n        1  |  0:00.00 |  4:23.50 |         0    |    19774   \n        2  |  4:23.50 |  5:33.66 |     19775    |    44815   \n        3  |  9:57.41 |  5:45.42 |     44816    |    70732   \n        4  | 15:43.08 |  4:08.17 |     70733    |    89349   \n        5  | 19:51.25 |  5:23.34 |     89350    |   113608   \n        6  | 25:14.59 |  5:00.66 |    113609    |   136174   \n        7  | 30:15.50 |  5:02.43 |    136175    |   158867   \n        8  | 35:18.18 |  5:19.54 |    158868    |   182846   \n        9  | 40:37.72 |  6:20.03 |    182847    |   211349   \n       10  | 46:58.00 |  5:00.66 |    211350    |   233915   \n       11  | 51:58.66 |  4:30.61 |    233916    |   254226   \n       12  | 56:29.52 |  5:30.64 |    254227    |   279040   \n       13  | 62:00.41 |  3:45.49 |    279041    |   295964   \n       14  | 65:46.15 |  3:40.09 |    295965    |   312473   \n       15  | 69:26.24 |  5:33.44 |    312474    |   337492   \n\n\nRange status and errors\n\nSelected range\n\n     Filename E:Joachim Garraud - Toolroom Knights CD1.wav\n\n     Peak level 98.9 %\n     Range quality 100.0 %\n     Test CRC 86488AD3\n     Copy CRC 86488AD3\n     Copy OK\n\nNo errors occurred\n\nEnd of status report\n","torrent":{"xt":"urn:btih:73d5ac1044f76a42df1057dca0866228e3920c17","amp;dn":"Toolroom+Knights+CD1%282009%29-Mixed+by+Joachim+Garraud","amp;tr":["udp%3A%2F%2Ftracker.openbittorrent.com%3A80","udp%3A%2F%2Fopen.demonii.com%3A1337","udp%3A%2F%2Ftracker.coppersurfer.tk%3A6969","udp%3A%2F%2Fexodus.desync.com%3A6969"],"infoHash":"73d5ac1044f76a42df1057dca0866228e3920c17","infoHashBuffer":{"type":"Buffer","data":[115,213,172,16,68,247,106,66,223,16,87,220,160,134,98,40,227,146,12,23]},"announce":[],"urlList":[]}}